<?xml version="1.0" encoding="utf-8"?>
<!-- Generator: Adobe Illustrator 16.0.0, SVG Export Plug-In . SVG Version: 6.00 Build 0)  -->
<!DOCTYPE svg PUBLIC "-//W3C//DTD SVG 1.1//EN" "http://www.w3.org/Graphics/SVG/1.1/DTD/svg11.dtd">
<svg version="1.1" id="图层_1" xmlns="http://www.w3.org/2000/svg" xmlns:xlink="http://www.w3.org/1999/xlink" x="0px" y="0px"
	 width="154px" height="154px" viewBox="0 0 154 154" enable-background="new 0 0 154 154" xml:space="preserve">
<g>
	<g>
		<g>
			<g>
				<path fill-rule="evenodd" clip-rule="evenodd" fill="#F8F8F8" d="M8.885,0.987h136.23c4.361,0,7.897,3.536,7.897,7.897v136.23
					c0,4.361-3.536,7.897-7.897,7.897H8.885c-4.361,0-7.897-3.536-7.897-7.897V8.885C0.987,4.523,4.523,0.987,8.885,0.987z"/>
			</g>
			<g>
				<g>
					<path fill="#CCCCCC" d="M145.146,154h-3.951v-1.975h3.92L145.146,154z M138.233,154h-3.95v-1.975h3.95V154z M131.32,154h-3.95
						v-1.975h3.95V154z M124.408,154h-3.951v-1.975h3.951V154z M117.494,154h-3.949v-1.975h3.949V154z M110.581,154h-3.949v-1.975
						h3.949V154z M103.669,154h-3.95v-1.975h3.95V154z M96.756,154h-3.949v-1.975h3.949V154z M89.843,154h-3.949v-1.975h3.949V154z
						 M82.931,154h-3.95v-1.975h3.95V154z M76.018,154h-3.949v-1.975h3.949V154z M69.104,154h-3.949v-1.975h3.949V154z M62.192,154
						h-3.951v-1.975h3.951V154z M55.279,154h-3.95v-1.975h3.95V154z M48.367,154h-3.951v-1.975h3.951V154z M41.454,154h-3.951
						v-1.975h3.951V154z M34.541,154h-3.95v-1.975h3.95V154z M27.629,154h-3.951v-1.975h3.951V154z M20.716,154h-3.951v-1.975h3.951
						V154z M13.802,154H9.853v-1.975h3.949V154z M6.665,153.721c-1.434-0.368-2.766-1.103-3.853-2.119l1.35-1.442
						c0.846,0.793,1.882,1.362,2.995,1.648L6.665,153.721z M148.402,153.371l-0.73-1.833c1.069-0.428,2.025-1.123,2.765-2.014
						l1.52,1.261C151.007,151.93,149.778,152.823,148.402,153.371z M0.857,148.927c-0.57-1.197-0.858-2.48-0.857-3.813v-0.446h1.975
						v0.447c-0.001,1.037,0.223,2.033,0.666,2.964L0.857,148.927z M153.56,147.884l-1.876-0.613c0.227-0.694,0.342-1.42,0.342-2.155
						v-1.446H154v1.446C154,146.06,153.852,146.991,153.56,147.884z M1.975,141.705H0v-3.95h1.975V141.705z M154,140.707h-1.975
						v-3.951H154V140.707z M1.975,134.792H0v-3.95h1.975V134.792z M154,133.794h-1.975v-3.951H154V133.794z M1.975,127.879H0v-3.949
						h1.975V127.879z M154,126.881h-1.975v-3.95H154V126.881z M1.975,120.966H0v-3.949h1.975V120.966z M154,119.969h-1.975v-3.951
						H154V119.969z M1.975,114.054H0v-3.95h1.975V114.054z M154,113.056h-1.975v-3.95H154V113.056z M1.975,107.141H0v-3.949h1.975
						V107.141z M154,106.142h-1.975v-3.949H154V106.142z M1.975,100.228H0v-3.949h1.975V100.228z M154,99.229h-1.975v-3.95H154
						V99.229z M1.975,93.315H0v-3.95h1.975V93.315z M154,92.316h-1.975v-3.949H154V92.316z M1.975,86.402H0v-3.95h1.975V86.402z
						 M154,85.403h-1.975v-3.949H154V85.403z M1.975,79.489H0v-3.95h1.975V79.489z M154,78.491h-1.975v-3.95H154V78.491z
						 M1.975,72.577H0v-3.951h1.975V72.577z M154,71.578h-1.975v-3.949H154V71.578z M1.975,65.664H0v-3.95h1.975V65.664z
						 M154,64.665h-1.975v-3.949H154V64.665z M1.975,58.751H0v-3.95h1.975V58.751z M154,57.753h-1.975v-3.95H154V57.753z
						 M1.975,51.839H0v-3.951h1.975V51.839z M154,50.84h-1.975v-3.95H154V50.84z M1.975,44.926H0v-3.95h1.975V44.926z M154,43.927
						h-1.975v-3.95H154V43.927z M1.975,38.013H0v-3.95h1.975V38.013z M154,37.015h-1.975v-3.951H154V37.015z M1.975,31.1H0v-3.95
						h1.975V31.1z M154,30.102h-1.975v-3.95H154V30.102z M1.975,24.187H0v-3.949h1.975V24.187z M154,23.189h-1.975v-3.951H154
						V23.189z M1.975,17.274H0v-3.95h1.975V17.274z M154,16.276h-1.975v-3.951H154V16.276z M1.975,10.361H0V8.885
						C0,7.95,0.145,7.03,0.43,6.147l1.878,0.607C2.087,7.44,1.975,8.157,1.975,8.885V10.361z M154,9.362h-1.975V8.885
						c-0.001-1.028-0.221-2.019-0.654-2.94l1.786-0.841c0.559,1.186,0.842,2.458,0.843,3.78V9.362z M3.547,4.497L2.021,3.242
						c0.946-1.149,2.172-2.049,3.545-2.602l0.736,1.832C5.235,2.901,4.283,3.603,3.547,4.497z M149.857,3.858
						c-0.842-0.795-1.875-1.369-2.988-1.659l0.499-1.911c1.434,0.375,2.763,1.112,3.845,2.136L149.857,3.858z M144.179,1.975h-3.951
						V0h3.951V1.975z M137.266,1.975h-3.95V0h3.95V1.975z M130.353,1.975h-3.95V0h3.95V1.975z M123.439,1.975h-3.95V0h3.95V1.975z
						 M116.526,1.975h-3.949V0h3.949V1.975z M109.614,1.975h-3.95V0h3.95V1.975z M102.701,1.975h-3.949V0h3.949V1.975z
						 M95.788,1.975h-3.949V0h3.949V1.975z M88.876,1.975h-3.95V0h3.95V1.975z M81.963,1.975h-3.949V0h3.949V1.975z M75.05,1.975
						H71.1V0h3.95V1.975z M68.138,1.975h-3.951V0h3.951V1.975z M61.225,1.975h-3.95V0h3.95V1.975z M54.312,1.975h-3.95V0h3.95V1.975
						z M47.399,1.975h-3.951V0h3.951V1.975z M40.486,1.975h-3.95V0h3.95V1.975z M33.573,1.975h-3.95V0h3.95V1.975z M26.66,1.975
						h-3.95V0h3.95V1.975z M19.747,1.975h-3.949V0h3.949V1.975z M12.835,1.975h-3.95L8.823,0h4.012V1.975z"/>
				</g>
			</g>
		</g>
	</g>
	<g>
		<path fill-rule="evenodd" clip-rule="evenodd" fill="#CCCCCC" d="M58.38,52.5h37.24c1.038,0,1.88,0.842,1.88,1.88v0.24
			c0,1.038-0.842,1.88-1.88,1.88H58.38c-1.038,0-1.88-0.842-1.88-1.88v-0.24C56.5,53.342,57.342,52.5,58.38,52.5z"/>
		<path fill-rule="evenodd" clip-rule="evenodd" fill="#CCCCCC" d="M76.38,33.5h0.24c1.038,0,1.88,0.842,1.88,1.88v37.24
			c0,1.038-0.842,1.88-1.88,1.88h-0.24c-1.038,0-1.88-0.842-1.88-1.88V35.38C74.5,34.342,75.342,33.5,76.38,33.5z"/>
	</g>
</g>
</svg>
