<?xml version="1.0" encoding="utf-8"?>
<!-- Generator: Adobe Illustrator 16.0.0, SVG Export Plug-In . SVG Version: 6.00 Build 0)  -->
<!DOCTYPE svg PUBLIC "-//W3C//DTD SVG 1.1//EN" "http://www.w3.org/Graphics/SVG/1.1/DTD/svg11.dtd">
<svg version="1.1" id="图层_1" xmlns="http://www.w3.org/2000/svg" xmlns:xlink="http://www.w3.org/1999/xlink" x="0px" y="0px"
	 width="36px" height="36px" viewBox="0 0 36 36" enable-background="new 0 0 36 36" xml:space="preserve">
<g>
	<path fill="#6CBB48" d="M18,2c8.822,0,16,7.178,16,16s-7.178,16-16,16S2,26.822,2,18S9.178,2,18,2 M18,0C8.06,0,0,8.059,0,18
		c0,9.94,8.06,18,18,18s18-8.06,18-18C36,8.059,27.94,0,18,0L18,0z"/>
</g>
<g>
	<g>
		<path fill="#6CBB48" d="M16.422,25.168c-0.374,0-0.735-0.14-1.014-0.394l-5.921-5.424c-0.61-0.56-0.652-1.509-0.093-2.12
			c0.561-0.61,1.511-0.651,2.12-0.093l4.738,4.341l8.075-10.085c0.518-0.646,1.464-0.75,2.108-0.233
			c0.646,0.518,0.751,1.462,0.233,2.108l-9.077,11.337c-0.26,0.324-0.642,0.526-1.056,0.558
			C16.499,25.166,16.46,25.168,16.422,25.168z"/>
	</g>
</g>
</svg>
