<?xml version="1.0" standalone="no"?><!DOCTYPE svg PUBLIC "-//W3C//DTD SVG 1.1//EN" "http://www.w3.org/Graphics/SVG/1.1/DTD/svg11.dtd"><svg t="1596533166548" class="icon" viewBox="0 0 1024 1024" version="1.1" xmlns="http://www.w3.org/2000/svg" p-id="2159" xmlns:xlink="http://www.w3.org/1999/xlink" width="32" height="32"><defs><style type="text/css"></style></defs><path d="M1014.176 962.656l-174.144-186.176a470.848 470.848 0 0 0 109.408-302.208C949.44 212.736 736.48 0 474.688 0 212.928 0 0 212.736 0 474.24s212.928 474.176 474.72 474.176a471.552 471.552 0 0 0 196.544-42.464 36.448 36.448 0 1 0-30.24-66.336 400.448 400.448 0 0 1-166.336 35.872c-221.472 0-401.664-180-401.664-401.248S253.216 72.96 474.688 72.96c221.504 0 401.696 180 401.696 401.28 0 104.16-39.744 202.816-111.904 277.888a36.48 36.48 0 0 0 0.96 51.552c1.12 1.056 2.528 1.44 3.776 2.368 0.96 1.472 1.472 3.136 2.72 4.48l188.896 201.888a36.32 36.32 0 0 0 51.584 1.696 36.32 36.32 0 0 0 1.76-51.456z m0 0" p-id="2160" fill="#ACB3BB"></path></svg>