<?xml version="1.0" standalone="no"?><!DOCTYPE svg PUBLIC "-//W3C//DTD SVG 1.1//EN" "http://www.w3.org/Graphics/SVG/1.1/DTD/svg11.dtd"><svg t="1596533265021" class="icon" viewBox="0 0 1024 1024" version="1.1" xmlns="http://www.w3.org/2000/svg" p-id="3430" xmlns:xlink="http://www.w3.org/1999/xlink" width="32" height="32"><defs><style type="text/css"></style></defs><path d="M519.656727 472.459636l-160.512-160.488727a36.584727 36.584727 0 1 0-51.712 51.712l160.488728 160.512-160.488728 160.512a36.584727 36.584727 0 1 0 51.712 51.712l160.512-160.512 160.488728 160.512a36.584727 36.584727 0 1 0 51.735272-51.712l-160.512-160.512 160.512-160.512a36.584727 36.584727 0 1 0-51.735272-51.712L519.68 472.436364zM512 1024C229.236364 1024 0 794.763636 0 512S229.236364 0 512 0s512 229.236364 512 512-229.236364 512-512 512z" p-id="3431" fill="#B0B7C0"></path></svg>