<?xml version="1.0" encoding="utf-8"?>
<!-- Generator: Adobe Illustrator 16.0.0, SVG Export Plug-In . SVG Version: 6.00 Build 0)  -->
<!DOCTYPE svg PUBLIC "-//W3C//DTD SVG 1.1//EN" "http://www.w3.org/Graphics/SVG/1.1/DTD/svg11.dtd">
<svg version="1.1" id="图层_1" xmlns="http://www.w3.org/2000/svg" xmlns:xlink="http://www.w3.org/1999/xlink" x="0px" y="0px"
	 width="44px" height="44px" viewBox="0 0 44 44" enable-background="new 0 0 44 44" xml:space="preserve">
<g>
	<path fill="#ffffff" d="M22,3c10.477,0,19,8.523,19,19s-8.523,19-19,19S3,32.477,3,22S11.523,3,22,3 M22,0C9.85,0,0,9.85,0,22s9.85,22,22,22
		s22-9.85,22-22S34.15,0,22,0L22,0z"/>
	<g>
		<g>
			<path fill="#ffffff" fill-rule="evenodd" clip-rule="evenodd" d="M24.121,22l7.425-7.425c0.586-0.585,0.586-1.535,0-2.121s-1.536-0.586-2.121,0
				L22,19.879l-7.425-7.425c-0.585-0.586-1.535-0.586-2.121,0s-0.586,1.536,0,2.121L19.879,22l-7.425,7.425
				c-0.586,0.586-0.586,1.535,0,2.121s1.536,0.586,2.121,0L22,24.121l7.425,7.425c0.585,0.586,1.535,0.586,2.121,0
				s0.586-1.535,0-2.121L24.121,22z"/>
		</g>
	</g>
</g>
</svg>
